<?xml version="1.0" encoding="utf-8"?>
<!-- Generator: Adobe Illustrator 25.1.0, SVG Export Plug-In . SVG Version: 6.00 Build 0)  -->
<svg version="1.1" id="Capa_1" xmlns="http://www.w3.org/2000/svg" xmlns:xlink="http://www.w3.org/1999/xlink" x="0px" y="0px"
	 viewBox="0 0 20 20" style="enable-background:new 0 0 20 20;" xml:space="preserve">
<style type="text/css">
	.st0{fill:url(#SVGID_1_);stroke:url(#SVGID_2_);stroke-width:0.2;stroke-miterlimit:10;}
	.st1{fill:url(#SVGID_3_);stroke:url(#SVGID_4_);stroke-width:0.2;stroke-miterlimit:10;}
</style>
<g>
	<linearGradient id="SVGID_1_" gradientUnits="userSpaceOnUse" x1="0.9818" y1="10.8023" x2="9.6218" y2="10.8023">
		<stop  offset="0" style="stop-color:#24B4B3"/>
		<stop  offset="1" style="stop-color:#003032"/>
	</linearGradient>
	<linearGradient id="SVGID_2_" gradientUnits="userSpaceOnUse" x1="0.8818" y1="10.8023" x2="9.7218" y2="10.8023">
		<stop  offset="0" style="stop-color:#24B4B3"/>
		<stop  offset="1" style="stop-color:#003032"/>
	</linearGradient>
	<path class="st0" d="M8.78,4.23c-2.32,0-4.63,0-6.95,0c-0.54,0-0.85,0.32-0.85,0.86c0,2.16,0,4.32,0,6.48
		c0,0.11,0.05,0.25,0.11,0.34c1.32,1.77,2.65,3.54,3.97,5.31c0.07,0.1,0.14,0.19,0.29,0.15c0.15-0.05,0.13-0.17,0.13-0.29
		c0-1.45,0-2.89,0-4.34c0-0.08,0-0.15,0-0.26c0.11,0,0.19,0,0.27,0c1,0,2,0,3,0c0.54,0,0.85-0.32,0.85-0.86c0-2.18,0-4.36,0-6.54
		C9.62,4.56,9.3,4.23,8.78,4.23z M8.68,12.08c-1.08,0-2.16,0-3.24,0c-0.3,0-0.33,0.04-0.33,0.34c0,1.3,0,2.6,0,3.91
		c0,0.07,0,0.14,0,0.25c-0.06-0.08-0.1-0.11-0.13-0.15c-1.17-1.56-2.35-3.13-3.52-4.69c-0.05-0.07-0.08-0.18-0.08-0.27
		c0-2.11,0-4.23,0-6.34c0-0.37,0.13-0.51,0.51-0.51c2.28,0,4.55,0,6.83,0c0.39,0,0.52,0.13,0.52,0.52c0,2.13,0,4.27,0,6.4
		C9.23,11.96,9.11,12.08,8.68,12.08z"/>
</g>
<g>
	<linearGradient id="SVGID_3_" gradientUnits="userSpaceOnUse" x1="10.5419" y1="10.8023" x2="19.1818" y2="10.8023">
		<stop  offset="0" style="stop-color:#24B4B3"/>
		<stop  offset="1" style="stop-color:#003032"/>
	</linearGradient>
	<linearGradient id="SVGID_4_" gradientUnits="userSpaceOnUse" x1="10.4419" y1="10.8023" x2="19.2818" y2="10.8023">
		<stop  offset="0" style="stop-color:#24B4B3"/>
		<stop  offset="1" style="stop-color:#003032"/>
	</linearGradient>
	<path class="st1" d="M18.34,4.23c-2.32,0-4.63,0-6.95,0c-0.54,0-0.85,0.32-0.85,0.86c0,2.16,0,4.32,0,6.48
		c0,0.11,0.05,0.25,0.11,0.34c1.32,1.77,2.65,3.54,3.97,5.31c0.07,0.1,0.14,0.19,0.29,0.15c0.15-0.05,0.13-0.17,0.13-0.29
		c0-1.45,0-2.89,0-4.34c0-0.08,0-0.15,0-0.26c0.11,0,0.19,0,0.27,0c1,0,2,0,3,0c0.54,0,0.85-0.32,0.85-0.86c0-2.18,0-4.36,0-6.54
		C19.18,4.56,18.86,4.23,18.34,4.23z M18.24,12.08c-1.08,0-2.16,0-3.24,0c-0.3,0-0.33,0.04-0.33,0.34c0,1.3,0,2.6,0,3.91
		c0,0.07,0,0.14,0,0.25c-0.06-0.08-0.1-0.11-0.13-0.15c-1.17-1.56-2.35-3.13-3.52-4.69c-0.05-0.07-0.08-0.18-0.08-0.27
		c0-2.11,0-4.23,0-6.34c0-0.37,0.13-0.51,0.51-0.51c2.28,0,4.55,0,6.83,0c0.39,0,0.52,0.13,0.52,0.52c0,2.13,0,4.27,0,6.4
		C18.79,11.96,18.67,12.08,18.24,12.08z"/>
</g>
</svg>
